<svg xmlns="http://www.w3.org/2000/svg">
  <symbol id="open-in-new" viewBox="0 0 24 24">
    <path d="M14 3v2h3.59l-9.83 9.83 1.41 1.41L19 6.41V10h2V3h-7zM19 19H5V5h5V3H5c-1.1 0-2 .9-2 2v14c0 1.1.9 2 2 2h14c1.1 0 2-.9 2-2v-5h-2v5z"/>
  </symbol>
  <symbol id="delete" viewBox="0 0 24 24">
    <path d="M6 19c0 1.1.9 2 2 2h8c1.1 0 2-.9 2-2V7H6v12zM8 9h8v10H8V9zm7.5-5-1-1h-5l-1 1H5v2h14V4z"/>
  </symbol>
  <symbol id="refresh" viewBox="0 0 24 24">
    <path d="M17.65 6.35C16.2 4.9 14.21 4 12 4c-4.42 0-7.99 3.58-7.99 8s3.57 8 7.99 8c3.73 0 6.84-2.55 7.73-6h-2.08c-.82 2.33-3.04 4-5.65 4-3.31 0-6-2.69-6-6s2.69-6 6-6c1.66 0 3.14.69 4.22 1.78L13 11h8V3l-3.35 3.35z"/>
  </symbol>
  <symbol id="save" viewBox="0 0 24 24">
    <path d="M17 3H5c-1.11 0-2 .9-2 2v14c0 1.1.89 2 2 2h14c1.1 0 2-.9 2-2V7l-4-4zm2 16H5V5h11.17L19 7.83V19zm-7-7c-1.66 0-3 1.34-3 3s1.34 3 3 3 3-1.34 3-3-1.34-3-3-3zM6 6h9v4H6V6z"/>
  </symbol>
  <symbol id="raindrop" viewBox="0 0 24 24">
    <path d="M12 2.75 6.98 8.46C5.12 10.58 4.5 12.28 4.5 14.25 4.5 18.36 7.86 21.5 12 21.5s7.5-3.14 7.5-7.25c0-1.97-.62-3.67-2.48-5.79L12 2.75zm0 3.03 3.51 3.99c1.46 1.66 1.99 2.87 1.99 4.48 0 2.97-2.43 5.25-5.5 5.25s-5.5-2.28-5.5-5.25c0-1.61.53-2.82 1.99-4.48L12 5.78z"/>
  </symbol>
  <symbol id="close" viewBox="0 0 24 24">
    <path d="M18.3 5.71 12 12l6.3 6.29-1.41 1.41-6.3-6.29-6.29 6.3-1.41-1.41L9.17 12 2.89 5.71 4.3 4.3l6.29 6.29 6.3-6.29 1.41 1.41z"/>
  </symbol>
  <symbol id="push-pin" viewBox="0 0 24 24">
    <path d="M16 9V4h1V2H7v2h1v5l-2 2v2h5.2v9h1.6v-9H18v-2l-2-2zm-7.17 2L10 9.83V4h4v5.83L15.17 11H8.83z"/>
  </symbol>
</svg>
